<svg xmlns="http://www.w3.org/2000/svg" viewBox="0 0 512 512">
  <g>
    <path d="M132.84,216.52h1.82v9.1h16.12V184.93c0-15.6-12.09-25.61-29.25-25.61S95,169.59,89.94,177l13.26,8.06c3.38-7.28,8.58-12.48,17.68-12.48s13.52,5.2,13.52,11.18v2.08l-24.7,2.73c-12.35,1.3-21.32,8.45-21.32,18.72,0,12.35,9.62,20.15,24.18,20.15C126.21,227.44,130.76,220.81,132.84,216.52Zm-27.3-10.14c0-3.77,3-6.5,9.1-7.28l19.76-2.34v1.56c0,8.84-6.37,15.6-17.81,15.6C109.31,213.92,105.54,210.8,105.54,206.38Z" style="fill: #333"/>
    <path d="M322.53,355.32c-17.16,0-26.52,10.27-31.59,17.68l13.26,8.06c3.38-7.28,8.58-12.48,17.68-12.48s13.52,5.2,13.52,11.18v2.08l-24.7,2.73c-12.35,1.3-21.32,8.45-21.32,18.72,0,12.35,9.62,20.15,24.18,20.15,13.65,0,18.2-6.63,20.28-10.92h1.82v9.1h16.12V380.93C351.78,365.33,339.69,355.32,322.53,355.32Zm12.87,39c0,8.84-6.37,15.6-17.81,15.6-7.28,0-11-3.12-11-7.54,0-3.77,3-6.5,9.1-7.28l19.76-2.34Z" style="fill: #333"/>
    <path d="M272.89,402.09a149.08,149.08,0,0,1-16.39.91C176.27,403,111,337.73,111,257.5c0-4.25.19-8.54.55-12.75a4,4,0,1,0-8-.69c-.38,4.44-.58,9-.58,13.44C103,342.14,171.86,411,256.5,411a155.42,155.42,0,0,0,17.28-1,4,4,0,1,0-.89-8Z" style="fill: #333"/>
    <path d="M256.5,104a152.52,152.52,0,0,0-108.4,44.82,4,4,0,1,0,5.65,5.66A144.58,144.58,0,0,1,256.5,112C336.73,112,402,177.27,402,257.5a144.65,144.65,0,0,1-41.84,102.1,4,4,0,0,0,5.7,5.62A152.63,152.63,0,0,0,410,257.5C410,172.86,341.14,104,256.5,104Z" style="fill: #333"/>
  </g>
</svg>
